<svg xmlns="http://www.w3.org/2000/svg" viewBox="0 0 512 512">
  <rect width="512" height="512" rx="88" fill="#1a1d21"/>
  <!-- scan corner brackets -->
  <g stroke="#f5a623" stroke-width="22" stroke-linecap="round" fill="none">
    <path d="M96 168 V116 A20 20 0 0 1 116 96 H168"/>
    <path d="M416 168 V116 A20 20 0 0 1 396 96 H344"/>
    <path d="M96 344 V396 A20 20 0 0 1 116 416 H168"/>
    <path d="M416 344 V396 A20 20 0 0 1 396 416 H344"/>
  </g>
  <!-- barcode -->
  <g fill="#e8e6e1">
    <rect x="150" y="216" width="10" height="80"/>
    <rect x="168" y="216" width="18" height="80"/>
    <rect x="196" y="216" width="8" height="80"/>
    <rect x="214" y="216" width="14" height="80"/>
    <rect x="238" y="216" width="20" height="80"/>
    <rect x="268" y="216" width="10" height="80"/>
    <rect x="286" y="216" width="8" height="80"/>
    <rect x="304" y="216" width="16" height="80"/>
    <rect x="330" y="216" width="10" height="80"/>
    <rect x="348" y="216" width="14" height="80"/>
  </g>
</svg>
